<?xml version="1.0" encoding="UTF-8" standalone="no"?>
<!-- Copyright 2000-2021 JetBrains s.r.o. Use of this source code is governed by the Apache 2.0 license that can be found in the LICENSE file. -->

<svg
   width="16"
   height="16"
   viewBox="0 0 16 16"
   version="1.1"
   id="svg12"
   sodipodi:docname="json_dark.svg"
   inkscape:version="1.1.1 (3bf5ae0d25, 2021-09-20)"
   xmlns:inkscape="http://www.inkscape.org/namespaces/inkscape"
   xmlns:sodipodi="http://sodipodi.sourceforge.net/DTD/sodipodi-0.dtd"
   xmlns="http://www.w3.org/2000/svg"
   xmlns:svg="http://www.w3.org/2000/svg">
  <defs
     id="defs16" />
  <sodipodi:namedview
     id="namedview14"
     pagecolor="#ffffff"
     bordercolor="#666666"
     borderopacity="1.0"
     inkscape:pageshadow="2"
     inkscape:pageopacity="0.0"
     inkscape:pagecheckerboard="0"
     showgrid="false"
     inkscape:zoom="13.46875"
     inkscape:cx="2.3387471"
     inkscape:cy="2.1160093"
     inkscape:window-width="1920"
     inkscape:window-height="1051"
     inkscape:window-x="-9"
     inkscape:window-y="-9"
     inkscape:window-maximized="1"
     inkscape:current-layer="svg12" />
  <g
     id="g877">
    <path
       fill="#9aa7b0"
       d="m 8.416,13.8965 c 0,-0.157 0.021,-0.578 0.021,-0.757 0,-0.82 -0.31,-1.156 -1.168,-1.156 H 7 v -0.968 h 0.269 c 0.858,0 1.168,-0.347 1.168,-1.167 0,-0.179 -0.021,-0.598 -0.021,-0.757 0,-1.072 0.466,-1.745 2.349,-2.091 l 0.216,0.84 c -1.241,0.348 -1.406,0.673 -1.406,1.441 0,0.211 0.021,0.557 0.021,0.778 0,0.82 -0.393,1.219 -1.076,1.441 0.693,0.23 1.076,0.62 1.076,1.44 0,0.221 -0.021,0.567 -0.021,0.778 0,0.767 0.165,1.093 1.406,1.44 l -0.216,0.842 c -1.883,-0.348 -2.349,-1.021 -2.349,-2.104 m 3.6026,1.2617 c 1.241,-0.347 1.406,-0.673 1.406,-1.439 0,-0.211 -0.02,-0.558 -0.02,-0.779 0,-0.82 0.392,-1.22 1.075,-1.44 -0.692,-0.232 -1.075,-0.62 -1.075,-1.441 0,-0.22 0.02,-0.567 0.02,-0.778 0,-0.768 -0.165,-1.093 -1.406,-1.44 l 0.217,-0.841 c 1.883,0.346 2.348,1.019 2.348,2.092 0,0.158 -0.021,0.578 -0.021,0.756 0,0.821 0.31,1.167 1.169,1.167 h 0.268 v 0.968 h -0.268 c -0.859,0 -1.169,0.336 -1.169,1.156 0,0.179 0.021,0.6 0.021,0.757 0,1.083 -0.465,1.756 -2.348,2.104 z"
       id="path2"
       style="fill-rule:evenodd;fill:#00ff98;fill-opacity:1" />
    <polygon
       fill="#9aa7b0"
       fill-opacity="0.8"
       points="7,5 7,1 3,5 "
       id="polygon4"
       style="fill-rule:evenodd" />
    <path
       fill="#9aa7b0"
       fill-opacity="0.8"
       d="m 10.5957,12.9404 c 0,0.122 -0.011,1.01 -0.005,1.035 0,-0.001 0.002,-0.002 0.002,-0.002 0.03,0 0.907,0.292 0.907,0.292 0,0 0.872,-0.289 0.925,-0.325 -0.007,-0.013 -0.02,-0.878 -0.02,-1 0,-0.449 0.089,-0.975 0.404,-1.437 -0.269,-0.39 -0.404,-0.873 -0.404,-1.444 0,-0.122 0.01,-1.01 0.004,-1.035 0,10e-4 -10e-4,10e-4 -10e-4,10e-4 -0.031,0 -0.908,-0.291 -0.908,-0.291 0,0 -0.872,0.289 -0.925,0.324 0.007,0.014 0.021,0.879 0.021,1.001 0,0.449 -0.09,0.974 -0.404,1.437 0.268,0.389 0.404,0.872 0.404,1.444"
       id="path6"
       style="fill-rule:evenodd" />
    <path
       fill="#9aa7b0"
       fill-opacity="0.8"
       d="m 7.416,13.8965 c 0,-0.084 0.019,-0.868 0.016,-0.906 C 7.392,12.9865 6,12.9835 6,12.9835 v -2.968 c 0,0 1.391,-0.003 1.431,-0.008 0.004,-0.039 -0.015,-0.831 -0.015,-0.916 0,-2.209 1.692,-2.803 3.168,-3.075 l 0.916,-0.169 0.916,0.169 c 0.192,0.035 0.389,0.077 0.584,0.126 V 1.0005 H 8 v 5 H 3 v 9 h 4.609 c -0.113,-0.319 -0.193,-0.672 -0.193,-1.104"
       id="path8"
       style="fill-rule:evenodd" />
  </g>
</svg>
